<?xml version="1.0" standalone="no"?>
<!DOCTYPE svg PUBLIC "-//W3C//DTD SVG 20010904//EN"
 "http://www.w3.org/TR/2001/REC-SVG-20010904/DTD/svg10.dtd">
<svg version="1.0" xmlns="http://www.w3.org/2000/svg"
 width="280.000000pt" height="280.000000pt" viewBox="0 0 280.000000 280.000000"
 preserveAspectRatio="xMidYMid meet">
<metadata>
Created by potrace 1.11, written by Peter Selinger 2001-2013
</metadata>
<g transform="translate(0.000000,280.000000) scale(0.100000,-0.100000)"
fill="#000000" stroke="none">
<path d="M820 1922 c-135 -15 -218 -93 -228 -212 -2 -37 21 -169 43 -240 16
-54 16 -59 -4 -79 -11 -11 -34 -44 -50 -73 l-30 -53 22 -50 c12 -28 41 -85 65
-127 23 -42 42 -79 42 -81 0 -3 16 -22 35 -43 19 -21 35 -41 35 -46 0 -4 18
-25 40 -46 l39 -40 109 -1 c107 -2 109 -2 126 24 9 14 28 31 41 37 14 6 22 14
19 19 -2 4 13 20 33 36 21 15 43 33 48 39 6 6 21 18 35 27 106 70 116 82 98
119 -4 9 -9 29 -11 45 -2 15 -8 37 -15 49 -6 11 -12 31 -14 45 -2 13 -7 30
-11 37 -5 6 -5 17 -2 22 3 6 2 10 -3 10 -6 0 -13 11 -16 25 -8 32 -33 32 -111
-1 -33 -15 -68 -27 -77 -27 -10 -1 -18 -5 -18 -9 0 -5 -17 -16 -37 -26 -21 -9
-47 -25 -57 -34 -11 -10 -23 -18 -27 -18 -4 0 -29 -20 -55 -45 -27 -25 -55
-45 -62 -45 -7 0 -11 -4 -8 -9 3 -5 -17 -30 -45 -56 -50 -47 -51 -47 -66 -26
-8 12 -16 28 -17 36 -1 7 -7 19 -13 26 -6 8 -23 36 -38 62 -40 74 -36 80 115
152 30 15 60 28 65 29 6 2 35 14 65 28 46 21 119 49 140 53 3 1 25 7 50 15 25
7 54 14 65 16 11 2 44 10 74 19 30 8 55 14 56 12 0 -1 13 -17 29 -36 15 -19
25 -40 22 -46 -3 -8 5 -16 18 -19 12 -3 34 -22 48 -41 l26 -36 23 33 c13 18
27 36 32 39 5 3 8 9 7 13 -2 11 34 66 43 66 4 0 6 4 2 9 -8 14 15 25 27 13 6
-6 16 -8 22 -6 7 3 39 -3 72 -11 32 -9 85 -23 117 -31 32 -8 70 -20 85 -28 15
-8 54 -24 86 -35 33 -11 66 -27 75 -34 9 -8 28 -17 44 -21 15 -3 27 -11 27
-17 0 -6 4 -8 9 -4 5 3 16 -1 24 -9 8 -8 17 -13 19 -10 8 7 68 -58 68 -73 0
-8 -7 -16 -15 -19 -8 -4 -15 -13 -15 -20 0 -8 -7 -17 -15 -20 -8 -4 -15 -12
-15 -18 0 -7 -6 -21 -14 -31 -14 -19 -15 -19 -44 11 -16 17 -36 34 -46 37 -9
4 -16 11 -16 17 0 5 -6 10 -13 10 -7 0 -26 12 -43 28 -17 15 -46 36 -65 46
-19 11 -36 22 -39 25 -14 16 -136 73 -204 96 -108 36 -119 33 -130 -35 -5 -30
-12 -57 -15 -60 -3 -3 -7 -27 -9 -55 -1 -27 -5 -57 -8 -65 -14 -34 -7 -87 14
-108 11 -11 23 -18 26 -15 3 3 18 -3 33 -13 15 -10 31 -19 35 -19 4 0 15 -7
25 -15 10 -9 32 -21 49 -28 16 -7 50 -33 74 -58 45 -46 100 -90 100 -79 0 3 9
1 20 -5 14 -7 20 -7 20 0 0 5 17 10 38 10 41 0 45 4 112 90 19 25 49 60 67 78
17 17 29 32 26 32 -4 0 3 10 14 23 51 57 86 123 86 162 1 52 -3 63 -30 91 -13
13 -23 30 -23 39 0 8 -6 15 -12 16 -7 0 -24 14 -37 31 -22 27 -23 33 -12 62
54 133 63 185 46 268 -8 41 -53 93 -117 135 -46 31 -73 35 -145 21 -29 -5 -55
-9 -58 -9 -5 1 -41 -29 -83 -69 -15 -14 -40 -55 -57 -90 -34 -77 -43 -89 -53
-75 -4 6 -16 11 -27 12 -11 1 -42 5 -70 8 -85 12 -216 8 -314 -9 -51 -9 -97
-19 -102 -22 -5 -3 -19 17 -32 44 -53 109 -126 186 -202 213 -22 8 -42 16 -45
19 -3 3 -16 4 -30 2z"/>
<path d="M1328 975 c-43 -57 -8 -105 74 -105 41 0 54 5 82 32 l33 31 -20 24
c-14 15 -31 23 -54 23 -18 0 -33 4 -33 10 0 6 -9 6 -24 0 -13 -4 -27 -5 -32 0
-5 5 -17 -2 -26 -15z"/>
</g>
</svg>
