<?xml version="1.0" standalone="no"?>
<!DOCTYPE svg PUBLIC "-//W3C//DTD SVG 20010904//EN"
 "http://www.w3.org/TR/2001/REC-SVG-20010904/DTD/svg10.dtd">
<svg version="1.0" xmlns="http://www.w3.org/2000/svg"
 width="200.000000pt" height="200.000000pt" viewBox="0 0 200.000000 200.000000"
 preserveAspectRatio="xMidYMid meet">
<metadata>
Created by potrace 1.11, written by Peter Selinger 2001-2013
</metadata>
<g transform="translate(0.000000,200.000000) scale(0.100000,-0.100000)"
fill="#000000" stroke="none">
<path d="M330 1500 c-30 -11 -55 -20 -56 -20 0 0 -15 -20 -32 -43 -60 -84 -63
-186 -11 -350 10 -33 19 -63 19 -66 0 -4 -18 -30 -40 -59 -63 -84 -62 -102 7
-234 65 -124 151 -243 199 -277 26 -18 44 -21 126 -21 l97 0 76 75 c71 71 100
94 183 147 38 24 53 54 41 83 -4 11 -22 67 -39 125 -18 58 -38 111 -46 119
-17 19 -68 4 -177 -50 -122 -60 -166 -93 -284 -211 -84 -83 -72 -87 -143 48
-35 66 -42 88 -34 101 27 43 338 175 527 223 l118 30 24 -27 c14 -16 28 -38
31 -50 3 -12 14 -25 24 -28 9 -3 29 -22 43 -42 l25 -36 45 69 c24 38 49 79 56
91 14 28 15 28 256 -36 39 -11 84 -26 100 -35 17 -9 34 -16 38 -16 5 0 59 -24
122 -54 100 -48 165 -95 165 -119 0 -5 -15 -28 -32 -52 -18 -23 -38 -51 -44
-61 -11 -18 -14 -17 -45 12 -109 101 -298 216 -423 258 -90 30 -112 32 -120
10 -11 -28 -46 -246 -46 -284 0 -35 3 -38 58 -66 103 -52 161 -91 226 -151 50
-47 70 -60 92 -58 16 1 45 3 65 3 31 2 42 10 90 70 30 37 62 76 72 87 89 97
151 207 142 250 -6 35 -45 95 -96 149 l-37 38 32 67 c28 59 31 76 31 162 0 92
-1 97 -30 131 -16 19 -51 50 -77 68 -39 27 -57 33 -100 33 -114 1 -201 -61
-258 -184 -25 -56 -36 -69 -49 -63 -80 35 -407 28 -503 -11 -13 -5 -23 5 -43
45 -59 117 -126 185 -212 216 -51 18 -87 16 -153 -6z"/>
<path d="M926 571 c-23 -25 -20 -67 6 -85 69 -49 209 15 160 73 -25 30 -142
39 -166 12z"/>
</g>
</svg>
