<?xml version="1.0" standalone="no"?>
<!DOCTYPE svg PUBLIC "-//W3C//DTD SVG 20010904//EN"
 "http://www.w3.org/TR/2001/REC-SVG-20010904/DTD/svg10.dtd">
<svg version="1.0" xmlns="http://www.w3.org/2000/svg"
 width="256.000000pt" height="256.000000pt" viewBox="0 0 256.000000 256.000000"
 preserveAspectRatio="xMidYMid meet">
<metadata>
Created by potrace 1.11, written by Peter Selinger 2001-2013
</metadata>
<g transform="translate(0.000000,256.000000) scale(0.100000,-0.100000)"
fill="#000000" stroke="none">
<path d="M1318 2435 c-3 -6 -9 -28 -12 -50 -14 -76 -78 -220 -141 -315 -110
-165 -190 -249 -432 -453 -148 -125 -243 -244 -290 -364 -23 -59 -27 -83 -27
-178 -1 -103 1 -114 30 -176 39 -82 121 -166 200 -205 50 -24 73 -29 159 -32
83 -3 111 0 164 18 122 41 226 130 305 261 l38 64 -6 -105 c-22 -383 -209
-615 -546 -676 -41 -7 -96 -13 -121 -14 -47 0 -58 -11 -59 -57 0 -10 155 -13
740 -13 l740 0 0 23 c0 38 -12 44 -105 57 -118 16 -249 60 -329 110 -179 113
-257 279 -281 595 -3 43 -4 77 -1 75 2 -3 27 -39 55 -81 65 -98 158 -184 241
-223 61 -29 72 -31 180 -31 107 0 119 2 175 29 33 17 85 55 115 85 83 83 119
173 120 296 1 189 -105 353 -395 615 -278 251 -410 430 -480 650 -15 47 -28
89 -29 95 -2 6 -4 6 -8 0z"/>
</g>
</svg>
